{"title":"End Tide - Fox Amoore","uid":8988541,"size":343147832,"categoryP":"audio","categoryS":"music","magnet":"?xt=urn:btih:ea642d380ce919862204dbfd05520c800788a65c&amp;dn=End+Tide+-+Fox+Amoore&amp;tr=udp%3A%2F%2Ftracker.openbittorrent.com%3A80&amp;tr=udp%3A%2F%2Fopen.demonii.com%3A1337&amp;tr=udp%3A%2F%2Ftracker.coppersurfer.tk%3A6969&amp;tr=udp%3A%2F%2Fexodus.desync.com%3A6969","seeders":1,"leechers":0,"uploader":"foxamoore&quot; rel=&quot;nofollow&quot; target=&quot;_NEW&quot;&gt;~624596539http:","files":-1,"time":1380735861,"description":"If you liked the music. I highly recommended to you that you support the artist.\n &lt;a href=&quot;\nhttp://furaffinity.net/user/foxamoore&quot; rel=&quot;nofollow&quot; target=&quot;_NEW&quot;&gt;\nhttp://furaffinity.net/user/foxamoore&lt;/a&gt;\n\n+-------------------------------------------------------+\n|                 End Tide - Fox Amoore                 |\n+-----+--------------------------------------+----------+\n|TRACK|                TITLE                 | Duration |\n+-----+--------------------------------------+----------+  \n|1.   |Here Comes The End Tide  \t     |    3:36  |\n|2.   |End Tide Main Theme:                  |    3:51  |\n|3.   |Together                              |    2:54  |\n|4.   |Together (Piano Solo)                 |    2:20  |\n|5.   |Right next to you                     |    2:14  |\n|6.   |The Attack                            |    3:20  |\n|7.   |Where will we go                      |    4:24  |\n|8.   |Here comes the End Tide (Instrumental)|    3:36  |\n|9.   |Wonders of the Deep                   |    4:01  |\n|10.  |Right next to you (Instrumental)      |    2:10  |\n+-----+--------------------------------------+----------+\n\nRIP INFO:\nExact Audio Copy V1.0 beta 3 from 29. August 2011\n\nEAC extraction logfile from 2. October 2013, 21:11\n\nFox Amoore / End Tide\n\nUsed drive  : HL-DT-STDVDRAM GU60N   Adapter: 1  ID: 0\n\nRead mode               : Secure\nUtilize accurate stream : Yes\nDefeat audio cache      : No\nMake use of C2 pointers : No\n\nCombined read/write offset correction       : 0\nOverread into Lead-In and Lead-Out          : No\nFill up missing offset samples with silence : Yes\nDelete leading and trailing silent blocks   : No\nNull samples used in CRC calculations       : Yes\nUsed interface                              : Native Win32 interface for Win NT &amp; 2000\nGap handling                                : Not detected, thus appended to previous track\n\nUsed output format : Internal WAV Routines\nSample format      : 44.100 Hz; 16 Bit; Stereo\n\n\nTOC of the extracted CD\n\n     Track |   Start  |  Length  | Start sector | End sector \n    ---------------------------------------------------------\n        1  |  0:00.00 |  3:36.00 |         0    |    16199   \n        2  |  3:36.00 |  3:51.00 |     16200    |    33524   \n        3  |  7:27.00 |  2:54.00 |     33525    |    46574   \n        4  | 10:21.00 |  2:20.00 |     46575    |    57074   \n        5  | 12:41.00 |  2:13.42 |     57075    |    67091   \n        6  | 14:54.42 |  3:20.00 |     67092    |    82091   \n        7  | 18:14.42 |  4:24.00 |     82092    |   101891   \n        8  | 22:38.42 |  3:36.00 |    101892    |   118091   \n        9  | 26:14.42 |  4:01.03 |    118092    |   136169   \n       10  | 30:15.45 |  2:09.51 |    136170    |   145895   \n\n\nTrack  1\n\n     Filename C:UsersFoxRIPFox AmooreFox Amoore - End Tide - Here Comes the End Tide.wav\n\n     Peak level 97.6 %\n     Extraction speed 2.2 X\n     Track quality 100.0 %\n     Copy CRC 705EBE3B\n     Copy OK\n\nTrack  2\n\n     Filename C:UsersFoxRIPFox AmooreFox Amoore - End Tide - End Tide Main Theme.wav\n\n     Peak level 87.4 %\n     Extraction speed 2.4 X\n     Track quality 100.0 %\n     Copy CRC DF5167C5\n     Copy OK\n\nTrack  3\n\n     Filename C:UsersFoxRIPFox AmooreFox Amoore - End Tide - Together.wav\n\n     Peak level 96.7 %\n     Extraction speed 2.6 X\n     Track quality 100.0 %\n     Copy CRC EBDBAF1A\n     Copy OK\n\nTrack  4\n\n     Filename C:UsersFoxRIPFox AmooreFox Amoore - End Tide - Together (Piano Solo).wav\n\n     Peak level 96.8 %\n     Extraction speed 2.7 X\n     Track quality 100.0 %\n     Copy CRC CA84CA06\n     Copy OK\n\nTrack  5\n\n     Filename C:UsersFoxRIPFox AmooreFox Amoore - End Tide - Right next to you.wav\n\n     Peak level 96.9 %\n     Extraction speed 2.9 X\n     Track quality 100.0 %\n     Copy CRC 66B585EE\n     Copy OK\n\nTrack  6\n\n     Filename C:UsersFoxRIPFox AmooreFox Amoore - End Tide - The Attack.wav\n\n     Peak level 98.7 %\n     Extraction speed 3.0 X\n     Track quality 100.0 %\n     Copy CRC A06182E0\n     Copy OK\n\nTrack  7\n\n     Filename C:UsersFoxRIPFox AmooreFox Amoore - End Tide - Where will we go.wav\n\n     Peak level 98.4 %\n     Extraction speed 3.2 X\n     Track quality 100.0 %\n     Copy CRC A1C4F15D\n     Copy OK\n\nTrack  8\n\n     Filename C:UsersFoxRIPFox AmooreFox Amoore - End Tide - Here Comes the End Tide(Insturmental).wav\n\n     Peak level 98.8 %\n     Extraction speed 3.3 X\n     Track quality 100.0 %\n     Copy CRC 55AAD0DA\n     Copy OK\n\nTrack  9\n\n     Filename C:UsersFoxRIPFox AmooreFox Amoore - End Tide - Wonders of the Deep.wav\n\n     Peak level 97.4 %\n     Extraction speed 3.4 X\n     Track quality 99.9 %\n     Copy CRC DE50B855\n     Copy OK\n\nTrack 10\n\n     Filename C:UsersFoxRIPFox AmooreFox Amoore - End Tide - Right next to you(Instrumental).wav\n\n     Peak level 93.5 %\n     Extraction speed 3.5 X\n     Track quality 100.0 %\n     Copy CRC 0B23B7E5\n     Copy OK\n\nNo errors occurred\n\nEnd of status report\n","torrent":{"xt":"urn:btih:ea642d380ce919862204dbfd05520c800788a65c","amp;dn":"End+Tide+-+Fox+Amoore","amp;tr":["udp%3A%2F%2Ftracker.openbittorrent.com%3A80","udp%3A%2F%2Fopen.demonii.com%3A1337","udp%3A%2F%2Ftracker.coppersurfer.tk%3A6969","udp%3A%2F%2Fexodus.desync.com%3A6969"],"infoHash":"ea642d380ce919862204dbfd05520c800788a65c","infoHashBuffer":{"type":"Buffer","data":[234,100,45,56,12,233,25,134,34,4,219,253,5,82,12,128,7,136,166,92]},"announce":[],"urlList":[]}}